<?xml version="1.0" encoding="utf-8"?>
<!-- Generator: Adobe Illustrator 24.0.0, SVG Export Plug-In . SVG Version: 6.00 Build 0)  -->
<svg version="1.1" id="Capa_1" xmlns="http://www.w3.org/2000/svg" xmlns:xlink="http://www.w3.org/1999/xlink" x="0px" y="0px"
	 viewBox="0 0 792 612" style="enable-background:new 0 0 792 612;" xml:space="preserve">
<style type="text/css">
	.st0{fill:#9D1D64;}
	.st1{fill:#632340;}
	.st2{fill:#FFFFFF;}
</style>
<g>
	<g>
		<path class="st0" d="M270.57,332.22l29.16,58.35c0,0-33.55,27.7-98.81,27.7c-84.94,0-162.98-69.27-162.98-155.32
			c0-86.41,77.67-156.42,162.98-156.42c65.26,0,98.81,27.71,98.81,27.71l-29.16,58.35c0,0-24.07-18.6-59.08-18.6
			c-68.91,0-99.16,48.13-99.16,88.23c0,40.48,30.25,88.6,99.16,88.6C246.5,350.82,270.57,332.22,270.57,332.22z"/>
		<path class="st1" d="M397.49,148.46c0,21.14-17.14,38.28-38.28,38.28c-21.15,0-38.3-17.14-38.3-38.28
			c0-21.15,17.14-38.28,38.3-38.28C380.34,110.18,397.49,127.31,397.49,148.46z"/>
		<rect x="326.02" y="225.76" class="st0" width="64.54" height="187.04"/>
		<path class="st0" d="M670.6,234.5h-1.83l-61.62,176.47H566.3L504.69,234.5h-1.83L488.65,412.8H420.1l26.97-300.8H520l66.72,173.56
			l66.74-173.56h72.92l26.97,300.8h-68.54L670.6,234.5z"/>
	</g>
	<g>
		<path class="st1" d="M782.47,473.3c0,17.9-14.5,32.4-32.4,32.4H41.21c-17.89,0-32.4-14.5-32.4-32.4l0,0
			c0-17.9,14.5-32.41,32.4-32.41h708.86C767.97,440.9,782.47,455.4,782.47,473.3L782.47,473.3z"/>
		<g>
			<path class="st2" d="M83.77,478.02c-0.41,6.9-3.12,13.23-11.09,13.23c-10.37,0-11.75-9.76-11.75-18.95
				c0-9.2,1.69-18.95,11.75-18.95c7.46,0,10.58,4.19,10.78,11.34h-4.7c-0.1-4.14-1.43-7.66-6.08-7.66c-6.23,0-7.05,6.85-7.05,15.27
				c0,8.43,0.82,15.28,7.05,15.28c5.47,0,6.23-5.11,6.39-9.55H83.77z"/>
			<path class="st2" d="M96.35,462.44c7.92,0,9.86,6.69,9.86,14.41c0,7.71-1.99,14.41-9.86,14.41c-7.92,0-9.86-6.69-9.86-14.41
				C86.49,469.13,88.48,462.44,96.35,462.44z M101.71,476.85c0-5.93-0.87-11.04-5.47-11.04c-4.34,0-5.26,5.11-5.26,11.04
				c0,5.93,0.87,11.04,5.26,11.04C100.79,487.88,101.71,482.77,101.71,476.85z"/>
			<path class="st2" d="M110.5,463.16h4.09v3.22h0.1c1.12-2.5,3.98-3.93,6.64-3.93c7.2,0,7.2,5.47,7.2,8.69v19.41h-4.29v-18.9
				c0-2.09-0.15-5.52-4.04-5.52c-2.3,0-5.42,1.53-5.42,5.52v18.9h-4.29V463.16z"/>
			<path class="st2" d="M145.91,471.18c0-3.47-0.92-5.36-4.04-5.36c-1.38,0-4.44,0.36-4.44,4.19c0,3.22,3.37,3.83,6.74,4.95
				c3.32,1.13,6.69,2.3,6.69,7.72c0,5.77-3.73,8.58-8.84,8.58c-9.3,0-9.4-6.9-9.4-9.71h4.29c0,3.32,0.92,6.34,5.11,6.34
				c1.38,0,4.55-0.67,4.55-4.55c0-3.68-3.37-4.44-6.69-5.57c-3.32-1.12-6.74-2.09-6.74-7.76c0-5.11,3.99-7.56,8.74-7.56
				c7.97,0,8.28,5.52,8.33,8.74H145.91z"/>
			<path class="st2" d="M158.54,477.36c0,4.19,0,10.53,5.26,10.53c4.09,0,4.65-4.29,4.65-6.34h4.29c0,2.91-1.74,9.71-9.2,9.71
				c-6.69,0-9.5-4.65-9.5-14.05c0-6.85,1.33-14.76,9.76-14.76c8.38,0,9.14,7.31,9.14,13.18v1.74H158.54z M168.45,473.99v-1.48
				c0-3.07-0.97-6.69-4.75-6.69c-4.49,0-5.01,5.52-5.01,7.15v1.02H168.45z"/>
			<path class="st2" d="M182.19,493.2c0,4.5-1.89,6.74-6.54,6.74c-0.66,0-1.33-0.1-1.99-0.15v-3.68c0.51,0.05,1.07,0.15,1.58,0.15
				c2.66,0,2.66-2.04,2.66-4.6v-28.51h4.29V493.2z M182.19,458.97h-4.29v-4.9h4.29V458.97z"/>
			<path class="st2" d="M196.6,462.44c7.92,0,9.86,6.69,9.86,14.41c0,7.71-1.99,14.41-9.86,14.41c-7.92,0-9.86-6.69-9.86-14.41
				C186.74,469.13,188.73,462.44,196.6,462.44z M201.97,476.85c0-5.93-0.87-11.04-5.47-11.04c-4.34,0-5.26,5.11-5.26,11.04
				c0,5.93,0.87,11.04,5.26,11.04C201.05,487.88,201.97,482.77,201.97,476.85z"/>
			<path class="st2" d="M241.05,490.54h-4.09v-3.37h-0.1c-0.56,2.05-2.97,4.09-5.93,4.09c-6.49,0-8.94-5.77-8.94-14.41
				c0-5.72,0.92-14.41,8.63-14.41c2.45,0,5.06,1.48,6.03,3.83h0.1v-12.21h4.29V490.54z M231.5,487.58c4.75,0,5.52-4.5,5.52-10.73
				c0-5.31-0.92-10.73-5.52-10.73c-3.99,0-5.01,4.19-5.01,10.73C226.49,483.39,227.52,487.58,231.5,487.58z"/>
			<path class="st2" d="M250.25,477.36c0,4.19,0,10.53,5.26,10.53c4.09,0,4.65-4.29,4.65-6.34h4.29c0,2.91-1.74,9.71-9.2,9.71
				c-6.69,0-9.5-4.65-9.5-14.05c0-6.85,1.33-14.76,9.76-14.76c8.38,0,9.15,7.31,9.15,13.18v1.74H250.25z M260.17,473.99v-1.48
				c0-3.07-0.97-6.69-4.75-6.69c-4.5,0-5.01,5.52-5.01,7.15v1.02H260.17z"/>
			<path class="st2" d="M281.78,454.06h4.5v36.48h-4.5V454.06z"/>
			<path class="st2" d="M292.05,463.16h4.09v3.22h0.1c1.12-2.5,3.98-3.93,6.64-3.93c7.2,0,7.2,5.47,7.2,8.69v19.41h-4.29v-18.9
				c0-2.09-0.15-5.52-4.04-5.52c-2.3,0-5.42,1.53-5.42,5.52v18.9h-4.29V463.16z"/>
			<path class="st2" d="M313.41,463.16h4.7l5.11,21.97h0.1l5.11-21.97h4.7l-7.41,27.38h-4.9L313.41,463.16z"/>
			<path class="st2" d="M340.04,477.36c0,4.19,0,10.53,5.26,10.53c4.09,0,4.65-4.29,4.65-6.34h4.29c0,2.91-1.74,9.71-9.2,9.71
				c-6.69,0-9.5-4.65-9.5-14.05c0-6.85,1.33-14.76,9.76-14.76c8.38,0,9.14,7.31,9.14,13.18v1.74H340.04z M349.95,473.99v-1.48
				c0-3.07-0.97-6.69-4.75-6.69c-4.5,0-5.01,5.52-5.01,7.15v1.02H349.95z"/>
			<path class="st2" d="M370.9,471.18c0-3.47-0.92-5.36-4.04-5.36c-1.38,0-4.44,0.36-4.44,4.19c0,3.22,3.37,3.83,6.74,4.95
				c3.32,1.13,6.69,2.3,6.69,7.72c0,5.77-3.73,8.58-8.84,8.58c-9.3,0-9.4-6.9-9.4-9.71h4.29c0,3.32,0.92,6.34,5.11,6.34
				c1.38,0,4.54-0.67,4.54-4.55c0-3.68-3.37-4.44-6.69-5.57c-3.32-1.12-6.74-2.09-6.74-7.76c0-5.11,3.98-7.56,8.73-7.56
				c7.97,0,8.28,5.52,8.33,8.74H370.9z"/>
			<path class="st2" d="M381.22,455.19h4.29v7.97h4.75v3.37h-4.75v17.57c0,2.2,0.57,3.06,2.81,3.06c0.92,0,1.43-0.1,1.89-0.15v3.53
				c-0.56,0.1-1.69,0.31-3.48,0.31c-4.44,0-5.52-1.84-5.52-5.42v-18.9h-3.99v-3.37h3.99V455.19z"/>
			<path class="st2" d="M393.43,454.06h4.29v4.9h-4.29V454.06z M393.43,463.16h4.29v27.38h-4.29V463.16z"/>
			<path class="st2" d="M421.64,488.8c0,8.18-3.78,11.14-9.3,11.14c-1.68,0-8.28,0-8.99-6.85h4.29c0.2,2.5,2.15,3.47,4.39,3.47
				c5.52,0,5.31-4.24,5.31-6.13v-3.57h-0.1c-0.92,2.3-3.48,3.68-6.18,3.68c-7.97,0-8.48-10.07-8.48-13.69
				c0-7.41,1.99-14.41,8.94-14.41c2.96,0,5.36,2.05,5.93,4.19h0.1v-3.47h4.09V488.8z M407.08,476.85c0,4.44,0.67,10.01,4.95,10.01
				c4.65,0,5.57-4.39,5.57-10.01c0-5.31-0.92-10.73-5.52-10.73C408.1,466.12,407.08,470.31,407.08,476.85z"/>
			<path class="st2" d="M426.6,471.43c0-6.23,2.66-8.99,9.2-8.99c8.33,0,8.33,5.01,8.33,7.87v15.27c0,1.12,0,2.2,1.33,2.2
				c0.56,0,0.82-0.1,1.02-0.25v3.06c-0.31,0.05-1.43,0.26-2.51,0.26c-1.64,0-3.68,0-3.88-3.53h-0.1c-1.38,2.45-4.03,3.93-6.59,3.93
				c-5.1,0-7.46-3.06-7.46-7.97c0-3.83,1.64-6.49,5.16-7.56l5.78-1.74c3.11-0.97,3.11-1.84,3.11-4.14c0-2.55-1.53-4.04-4.39-4.04
				c-4.7,0-4.7,4.39-4.7,5.36v0.25H426.6z M439.83,475.62c-1.59,1.69-5.36,2.04-7.31,3.22c-1.38,0.87-2.09,1.94-2.09,4.34
				c0,2.76,0.97,4.7,3.88,4.7c2.81,0,5.52-2.4,5.52-5.21V475.62z"/>
			<path class="st2" d="M462.98,471.48c0-2.66-1.07-5.67-4.34-5.67c-2.66,0-5.36,1.33-5.36,11.34c0,3.58,0.05,10.73,5.21,10.73
				c3.68,0,4.5-3.88,4.5-6.85h4.29c0,4.34-2.15,10.22-8.99,10.22c-6.69,0-9.5-4.65-9.5-14.05c0-6.85,1.33-14.76,9.76-14.76
				c7.46,0,8.74,5.88,8.74,9.04H462.98z"/>
			<path class="st2" d="M471.97,454.06h4.29v4.9h-4.29V454.06z M471.97,463.16h4.29v27.38h-4.29V463.16z"/>
			<path class="st2" d="M490.67,462.44c7.92,0,9.86,6.69,9.86,14.41c0,7.71-1.99,14.41-9.86,14.41c-7.92,0-9.86-6.69-9.86-14.41
				C480.81,469.13,482.81,462.44,490.67,462.44z M496.03,476.85c0-5.93-0.87-11.04-5.46-11.04c-4.35,0-5.27,5.11-5.27,11.04
				c0,5.93,0.87,11.04,5.27,11.04C495.11,487.88,496.03,482.77,496.03,476.85z M491.69,452.12h5.01l-5.52,7.25h-3.07L491.69,452.12z
				"/>
			<path class="st2" d="M504.83,463.16h4.09v3.22h0.1c1.12-2.5,3.98-3.93,6.64-3.93c7.2,0,7.2,5.47,7.2,8.69v19.41h-4.29v-18.9
				c0-2.09-0.15-5.52-4.03-5.52c-2.3,0-5.42,1.53-5.42,5.52v18.9h-4.29V463.16z"/>
			<path class="st2" d="M558.78,490.54h-4.09v-3.37h-0.1c-0.56,2.05-2.96,4.09-5.93,4.09c-6.49,0-8.94-5.77-8.94-14.41
				c0-5.72,0.92-14.41,8.63-14.41c2.45,0,5.06,1.48,6.03,3.83h0.1v-12.21h4.29V490.54z M549.23,487.58c4.75,0,5.52-4.5,5.52-10.73
				c0-5.31-0.92-10.73-5.52-10.73c-3.99,0-5.01,4.19-5.01,10.73C544.22,483.39,545.24,487.58,549.23,487.58z"/>
			<path class="st2" d="M567.98,477.36c0,4.19,0,10.53,5.26,10.53c4.09,0,4.65-4.29,4.65-6.34h4.29c0,2.91-1.74,9.71-9.2,9.71
				c-6.69,0-9.5-4.65-9.5-14.05c0-6.85,1.33-14.76,9.76-14.76c8.38,0,9.14,7.31,9.14,13.18v1.74H567.98z M577.89,473.99v-1.48
				c0-3.07-0.97-6.69-4.75-6.69c-4.49,0-5.01,5.52-5.01,7.15v1.02H577.89z"/>
			<path class="st2" d="M599.61,454.06h7.56l7.31,28.92h0.1l7.3-28.92h7.56v36.48h-4.5v-31.88h-0.1l-8.07,31.88h-4.5l-8.07-31.88
				h-0.1v31.88h-4.5V454.06z"/>
			<path class="st2" d="M638.91,477.36c0,4.19,0,10.53,5.26,10.53c4.09,0,4.65-4.29,4.65-6.34h4.29c0,2.91-1.74,9.71-9.2,9.71
				c-6.69,0-9.5-4.65-9.5-14.05c0-6.85,1.33-14.76,9.76-14.76c8.38,0,9.14,7.31,9.14,13.18v1.74H638.91z M648.82,473.99v-1.48
				c0-3.07-0.97-6.69-4.75-6.69c-4.5,0-5.01,5.52-5.01,7.15v1.02H648.82z"/>
			<path class="st2" d="M676.05,490.54h-4.09v-3.37h-0.1c-0.56,2.05-2.96,4.09-5.93,4.09c-6.49,0-8.94-5.77-8.94-14.41
				c0-5.72,0.92-14.41,8.63-14.41c2.45,0,5.06,1.48,6.03,3.83h0.1v-12.21h4.29V490.54z M666.5,487.58c4.75,0,5.52-4.5,5.52-10.73
				c0-5.31-0.92-10.73-5.52-10.73c-3.99,0-5.01,4.19-5.01,10.73C661.49,483.39,662.51,487.58,666.5,487.58z"/>
			<path class="st2" d="M681.93,454.06h4.29v4.9h-4.29V454.06z M681.93,463.16h4.29v27.38h-4.29V463.16z"/>
			<path class="st2" d="M700.63,462.44c7.92,0,9.86,6.69,9.86,14.41c0,7.71-1.99,14.41-9.86,14.41c-7.92,0-9.86-6.69-9.86-14.41
				C690.77,469.13,692.77,462.44,700.63,462.44z M706,476.85c0-5.93-0.87-11.04-5.47-11.04c-4.35,0-5.26,5.11-5.26,11.04
				c0,5.93,0.87,11.04,5.26,11.04C705.08,487.88,706,482.77,706,476.85z"/>
			<path class="st2" d="M726.54,471.18c0-3.47-0.92-5.36-4.03-5.36c-1.38,0-4.44,0.36-4.44,4.19c0,3.22,3.37,3.83,6.74,4.95
				c3.32,1.13,6.69,2.3,6.69,7.72c0,5.77-3.73,8.58-8.84,8.58c-9.29,0-9.4-6.9-9.4-9.71h4.29c0,3.32,0.92,6.34,5.1,6.34
				c1.38,0,4.55-0.67,4.55-4.55c0-3.68-3.37-4.44-6.69-5.57c-3.32-1.12-6.75-2.09-6.75-7.76c0-5.11,3.99-7.56,8.74-7.56
				c7.97,0,8.28,5.52,8.33,8.74H726.54z"/>
		</g>
	</g>
</g>
</svg>
